<svg width="37" height="37" viewBox="0 0 37 37" fill="none" xmlns="http://www.w3.org/2000/svg">
<path d="M8.27545 2.97491C8.35619 3.38631 8.55228 3.77848 8.8714 4.09376C9.50579 4.72816 10.4401 4.88964 11.2206 4.57052C11.482 4.46286 11.7281 4.30523 11.9396 4.09376C12.0357 3.99764 12.1164 3.89383 12.1895 3.78617C12.2126 3.75542 12.2318 3.72081 12.251 3.68621C12.2741 3.64776 12.3048 3.60931 12.3241 3.56702C12.3202 3.56702 12.3125 3.57086 12.3087 3.57471C12.747 2.75576 12.6316 1.71381 11.9396 1.02174C11.2475 0.329667 10.2094 0.214322 9.3866 0.652633C9.3866 0.648788 9.39045 0.641098 9.39429 0.637253C9.352 0.660322 9.3174 0.687236 9.2751 0.710305C9.2405 0.72953 9.20974 0.748754 9.17514 0.771823C9.06748 0.844875 8.96367 0.925616 8.86755 1.02174C8.65609 1.2332 8.49845 1.47927 8.39079 1.74072C8.28314 2.00217 8.23315 2.279 8.23315 2.55583C8.23315 2.69424 8.24469 2.83265 8.2716 2.97107L8.27545 2.97491Z" fill="#171717"/>
<path d="M13.57 8.79611L20.3408 15.5669C21.1866 16.4127 22.5631 16.4127 23.4089 15.5669C23.4743 15.5015 23.532 15.4361 23.5858 15.3669C23.582 15.3669 23.5743 15.3669 23.5704 15.3708C24.2433 14.5211 24.1971 13.2869 23.4089 12.4987L16.6382 5.72793C16.0192 5.10891 15.1233 4.94743 14.3505 5.23195C14.3505 5.23195 14.3505 5.23195 14.3505 5.2281C14.3428 5.2281 14.3313 5.23579 14.3236 5.23964C14.2928 5.25117 14.2621 5.26655 14.2313 5.27808C14.1275 5.32422 14.0237 5.37805 13.9237 5.43957C13.9084 5.4511 13.893 5.46264 13.8737 5.47417C13.7661 5.54722 13.6623 5.63181 13.5623 5.72793C13.1394 6.15086 12.9279 6.70836 12.9279 7.26202C12.9279 7.53885 12.9817 7.81568 13.0856 8.07712C13.1932 8.33857 13.3508 8.58464 13.5623 8.79611H13.57Z" fill="#171717"/>
<path d="M22.2272 7.25012C22.6501 7.67305 23.2076 7.88452 23.7613 7.88452C24.0381 7.88452 24.3149 7.83069 24.5764 7.72688C24.8378 7.61923 25.0839 7.46159 25.2953 7.25012C25.3915 7.154 25.4722 7.05019 25.5453 6.94638C25.5722 6.90793 25.5914 6.86948 25.6145 6.83103C25.6375 6.78874 25.6683 6.75029 25.6914 6.708C25.6875 6.708 25.6837 6.708 25.676 6.71184C26.0989 5.89289 25.9797 4.87017 25.2915 4.18194L21.7389 0.629315C21.0545 -0.0550661 20.0279 -0.178101 19.209 0.244831C19.209 0.240986 19.209 0.237141 19.2128 0.229452C19.1705 0.252521 19.1321 0.279435 19.0898 0.306348C19.0513 0.329417 19.0129 0.352487 18.9744 0.375556C18.8668 0.448607 18.763 0.529349 18.6707 0.62547C18.3516 0.944591 18.1555 1.33676 18.0747 1.74432C17.944 2.4287 18.1401 3.16306 18.6707 3.69365L22.2272 7.25012Z" fill="#171717"/>
<path d="M36.7482 19.207C36.7482 19.207 36.7559 19.207 36.7636 19.2109C36.7405 19.1686 36.7136 19.1301 36.6867 19.0878C36.6636 19.0494 36.6405 19.011 36.6175 18.9725C36.5444 18.8648 36.4637 18.761 36.3675 18.6649C35.5217 17.8191 34.1452 17.8191 33.2994 18.6649L29.7429 22.2214C29.2123 22.752 29.0162 23.4863 29.1469 24.1707C29.2277 24.5821 29.4238 24.9743 29.7429 25.2896C29.839 25.3857 29.9428 25.4664 30.0466 25.5395C30.0851 25.5664 30.1235 25.5856 30.162 25.6087C30.2043 25.6318 30.2427 25.6625 30.285 25.6856C30.285 25.6817 30.285 25.6779 30.2812 25.6702C31.0963 26.0931 32.1228 25.9739 32.8111 25.2857L36.3675 21.7292C37.0519 21.0449 37.175 20.0183 36.752 19.1993L36.7482 19.207Z" fill="#171717"/>
<path d="M20.8286 22.2911C20.9093 22.7025 21.1054 23.0947 21.4245 23.41C21.4899 23.4753 21.5553 23.5291 21.6245 23.5868C21.6245 23.583 21.6245 23.5753 21.6206 23.5714C22.4703 24.2443 23.7045 24.1981 24.4927 23.41L31.2635 16.6392C31.8825 16.0202 32.044 15.1243 31.7595 14.3515C31.7595 14.3515 31.7595 14.3515 31.7633 14.3515C31.7633 14.3438 31.7556 14.3323 31.7518 14.3246C31.7402 14.2938 31.7248 14.2631 31.7133 14.2323C31.6672 14.1285 31.6133 14.0247 31.5518 13.9247C31.5403 13.9094 31.5288 13.894 31.5172 13.8748C31.4442 13.7671 31.3596 13.6633 31.2635 13.5633C30.9443 13.2442 30.5522 13.0481 30.1446 12.9674C29.4602 12.8367 28.7259 13.0327 28.1953 13.5633L21.4245 20.3341C20.8939 20.8647 20.6979 21.599 20.8286 22.2834V22.2911Z" fill="#171717"/>
<path d="M32.8948 11.9369C32.991 12.033 33.0948 12.1138 33.2024 12.1868C33.2332 12.2099 33.2678 12.2291 33.3024 12.2483C33.3408 12.2714 33.3793 12.3021 33.4216 12.3214C33.4216 12.3175 33.4177 12.3098 33.4139 12.306C34.2328 12.7443 35.2748 12.629 35.9669 11.9369C36.6589 11.2448 36.7743 10.2067 36.336 9.38392C36.3398 9.38392 36.3475 9.38776 36.3513 9.39161C36.3283 9.34932 36.3014 9.31471 36.2783 9.27242C36.2591 9.23782 36.2398 9.20706 36.2168 9.17245C36.1437 9.0648 36.063 8.96099 35.9669 8.86487C35.121 8.019 33.7445 8.019 32.8987 8.86487C32.0528 9.71073 32.0528 11.0872 32.8987 11.933L32.8948 11.9369Z" fill="#171717"/>
<path d="M28.1195 32.8955C27.4851 32.2611 26.5508 32.0996 25.7703 32.4187C25.5089 32.5264 25.2628 32.684 25.0513 32.8955C24.9552 32.9916 24.8745 33.0954 24.8014 33.2031C24.7784 33.2338 24.7591 33.2684 24.7399 33.303C24.7168 33.3415 24.6861 33.3799 24.6669 33.4222C24.6707 33.4222 24.6784 33.4184 24.6822 33.4145C24.2439 34.2335 24.3593 35.2754 25.0513 35.9675C25.7434 36.6596 26.7815 36.7749 27.6043 36.3366C27.6043 36.3405 27.6005 36.3481 27.5966 36.352C27.6389 36.3289 27.6735 36.302 27.7158 36.2789C27.7504 36.2597 27.7812 36.2405 27.8158 36.2174C27.9234 36.1444 28.0272 36.0636 28.1234 35.9675C28.9692 35.1216 28.9692 33.7452 28.1234 32.8993L28.1195 32.8955Z" fill="#171717"/>
<path d="M23.4214 28.1971L16.6507 21.4264C16.3316 21.1072 15.9394 20.9112 15.5318 20.8304C15.2589 20.7766 14.9782 20.7766 14.7014 20.8304C14.29 20.9112 13.8978 21.1072 13.5825 21.4264C13.5171 21.4917 13.4633 21.5571 13.4056 21.6263C13.4095 21.6263 13.4172 21.6263 13.421 21.6224C12.7482 22.4722 12.7943 23.7063 13.5825 24.4945L20.3533 31.2653C20.9723 31.8843 21.8681 32.0458 22.6409 31.7613C22.6409 31.7613 22.6409 31.7613 22.6409 31.7651C22.6486 31.7651 22.6602 31.7574 22.6679 31.7536C22.6986 31.7421 22.7294 31.7267 22.7601 31.7151C22.8639 31.669 22.9678 31.6152 23.0677 31.5537C23.0831 31.5421 23.0985 31.5306 23.1177 31.5191C23.2254 31.446 23.3292 31.3614 23.4291 31.2653C23.7483 30.9462 23.9443 30.554 24.0251 30.1464C24.1058 29.7351 24.0635 29.3083 23.9059 28.9161C23.7982 28.6546 23.6406 28.4086 23.4291 28.1971H23.4214Z" fill="#171717"/>
<path d="M14.7669 29.7423C14.2363 29.2117 13.502 29.0156 12.8176 29.1463C12.4062 29.2271 12.014 29.4232 11.6987 29.7423C11.6026 29.8384 11.5219 29.9422 11.4488 30.0499C11.4219 30.0883 11.4027 30.1268 11.3796 30.1652C11.3565 30.2075 11.3258 30.246 11.3027 30.2883C11.3066 30.2883 11.3104 30.2882 11.3181 30.2844C10.8952 31.0995 11.0143 32.1261 11.7026 32.8143L15.259 36.3708C15.9434 37.0552 16.97 37.1782 17.7889 36.7553C17.7889 36.7591 17.7889 36.763 17.7851 36.7706C17.8274 36.7476 17.8658 36.7207 17.9081 36.6937C17.9466 36.6707 17.985 36.6476 18.0235 36.6245C18.1311 36.5515 18.2349 36.4707 18.3311 36.3746C19.1769 35.5288 19.1769 34.1523 18.3311 33.3064L14.7746 29.75L14.7669 29.7423Z" fill="#171717"/>
<path d="M4.68818 26.1743C4.60744 25.7629 4.41136 25.3707 4.09223 25.0554C3.99611 24.9593 3.8923 24.8786 3.78465 24.8055C3.75389 24.7824 3.71929 24.7632 3.68468 24.744C3.64623 24.7209 3.60778 24.6902 3.56549 24.6709C3.56549 24.6748 3.56934 24.6825 3.57318 24.6863C2.75423 24.248 1.71228 24.3634 1.02021 25.0554C0.328141 25.7475 0.212796 26.7856 0.651107 27.6084C0.647262 27.6084 0.639572 27.6046 0.635727 27.6007C0.658797 27.643 0.68571 27.6776 0.708779 27.7199C0.728004 27.7545 0.747228 27.7853 0.770297 27.8199C0.843349 27.9275 0.92409 28.0313 1.02021 28.1275C1.86607 28.9733 3.24253 28.9733 4.08839 28.1275C4.51132 27.7045 4.72279 27.147 4.72279 26.5934C4.72279 26.4549 4.71125 26.3165 4.68434 26.1781L4.68818 26.1743Z" fill="#171717"/>
<path d="M16.0448 15.9318C16.1524 15.6703 16.2024 15.3935 16.2024 15.1167C16.2024 14.9782 16.1909 14.8398 16.164 14.7014C16.0832 14.29 15.8871 13.8978 15.568 13.5826C15.5027 13.5172 15.4373 13.4634 15.3681 13.4057C15.3681 13.4096 15.3681 13.4172 15.3719 13.4211C14.5222 12.7482 13.288 12.7944 12.4998 13.5826L5.72909 20.3533C5.11007 20.9723 4.94859 21.8682 5.23311 22.641C5.23311 22.641 5.23311 22.641 5.22926 22.641C5.22926 22.6487 5.23695 22.6602 5.2408 22.6679C5.25233 22.6987 5.26771 22.7294 5.27924 22.7602C5.32538 22.864 5.37921 22.9678 5.44073 23.0678C5.45226 23.0832 5.4638 23.0985 5.47533 23.1139C5.54838 23.2216 5.63297 23.3254 5.72909 23.4253C6.57495 24.2712 7.9514 24.2712 8.79727 23.4253L15.568 16.6546C15.7795 16.4431 15.9371 16.1971 16.0448 15.9356V15.9318Z" fill="#171717"/>
<path d="M0.306348 17.9C0.329417 17.9385 0.352486 17.9769 0.375555 18.0154C0.448607 18.123 0.529349 18.2268 0.62547 18.323C0.944591 18.6421 1.33676 18.8382 1.74432 18.9189C1.88273 18.9458 2.02114 18.9574 2.15956 18.9574C2.43639 18.9574 2.71322 18.9035 2.97466 18.7997C3.23611 18.6921 3.48218 18.5344 3.69365 18.323L7.25012 14.7665C8.09599 13.9206 8.09599 12.5442 7.25012 11.6983C7.154 11.6022 7.05019 11.5214 6.94253 11.4484C6.90409 11.4215 6.86564 11.4022 6.82719 11.3792C6.7849 11.3561 6.74645 11.3254 6.70415 11.3023C6.70415 11.3061 6.70415 11.31 6.708 11.3177C5.89289 10.8947 4.86632 11.0139 4.1781 11.7021L0.629315 15.2548C-0.0550661 15.9392 -0.178101 16.9657 0.244831 17.7847C0.240986 17.7847 0.237141 17.7847 0.229452 17.7808C0.252521 17.8231 0.279435 17.8616 0.306348 17.9039V17.9Z" fill="#171717"/>
</svg>
