<svg width="16" height="12" viewBox="0 0 16 12" fill="none" xmlns="http://www.w3.org/2000/svg">
<path fill-rule="evenodd" clip-rule="evenodd" d="M6 1C6 0.447715 6.44771 0 7 0H15C15.5523 0 16 0.447715 16 1C16 1.55228 15.5523 2 15 2H7C6.44771 2 6 1.55228 6 1ZM0 6C0 5.44771 0.447715 5 1 5H15C15.5523 5 16 5.44771 16 6C16 6.55228 15.5523 7 15 7H1C0.447715 7 0 6.55228 0 6ZM0 11C0 10.4477 0.447715 10 1 10H9C9.55228 10 10 10.4477 10 11C10 11.5523 9.55228 12 9 12H1C0.447715 12 0 11.5523 0 11Z" fill="#171717"/>
</svg>
