<svg width="326" height="76" viewBox="0 0 326 76" fill="none" xmlns="http://www.w3.org/2000/svg">
<g clip-path="url(#clip0_6_5922)">
<path d="M5.7357 15.6865H6.14984C7.58762 15.7178 9.00195 16.296 10.0178 17.3196C9.6427 17.7025 9.25982 18.0698 8.89256 18.4527C8.32214 17.937 7.6345 17.5384 6.88436 17.3978C5.77477 17.1634 4.57923 17.3743 3.64936 18.0073C2.63354 18.6715 1.94591 19.7967 1.79745 21C1.63335 22.1878 1.96935 23.438 2.74294 24.3601C3.48527 25.2587 4.6183 25.8213 5.7904 25.8603C6.88436 25.9229 8.0252 25.5869 8.82223 24.8211C9.44735 24.2819 9.73647 23.4615 9.83024 22.6644C8.53311 22.6644 7.23599 22.6722 5.93887 22.6644V21.0547H11.4009C11.6822 22.7816 11.2758 24.7273 9.96307 25.9619C9.08791 26.8371 7.87674 27.3528 6.64213 27.4544C5.44658 27.5716 4.21197 27.345 3.14927 26.7668C1.87559 26.087 0.859767 24.9383 0.359671 23.5865C-0.109169 22.344 -0.116983 20.9375 0.320601 19.6873C0.719115 18.5464 1.48489 17.5384 2.46945 16.8352C3.41494 16.1397 4.5636 15.7568 5.7357 15.6865Z" fill="#ADB1C7"/>
<path d="M37.0694 16.0928H38.7416V27.2512C38.1868 27.2512 37.6242 27.259 37.0694 27.2433C37.0772 23.5317 37.0694 19.8122 37.0694 16.0928Z" fill="#ADB1C7"/>
<path d="M15.1197 19.9608C16.1512 19.7654 17.2686 19.9842 18.1203 20.6015C18.8939 21.1485 19.4331 22.0081 19.5972 22.9457C19.8081 24.0319 19.5425 25.2196 18.8392 26.0792C18.0813 27.0403 16.8388 27.556 15.6277 27.4779C14.5181 27.4153 13.4397 26.8606 12.7834 25.9541C12.041 24.9539 11.8613 23.5787 12.2676 22.4066C12.674 21.1485 13.8226 20.1874 15.1197 19.9608ZM15.3542 21.4455C14.9322 21.5549 14.5415 21.7971 14.2602 22.1409C13.5022 23.0473 13.5491 24.5242 14.3852 25.3681C14.8619 25.8526 15.5808 26.0792 16.245 25.9463C16.8623 25.8369 17.4014 25.4228 17.6984 24.8758C18.2141 23.9459 18.0656 22.6644 17.2764 21.9377C16.7685 21.4689 16.0262 21.2735 15.3542 21.4455Z" fill="#ADB1C7"/>
<path d="M23.4032 19.9608C24.5832 19.7342 25.8725 20.0623 26.7554 20.8906C28.1932 22.1799 28.3495 24.5945 27.1227 26.0791C26.3804 27.0168 25.177 27.5325 23.9893 27.4778C22.8563 27.4466 21.7389 26.884 21.0669 25.9541C20.3089 24.9305 20.1448 23.5239 20.5746 22.3284C21.0043 21.1094 22.1296 20.1796 23.4032 19.9608ZM23.6377 21.4454C23.2157 21.5548 22.825 21.797 22.5437 22.1331C21.7936 23.0238 21.8248 24.4773 22.6297 25.329C23.1063 25.8369 23.8486 26.0869 24.5363 25.9463C25.1458 25.8291 25.6927 25.4227 25.9897 24.8758C26.4976 23.9381 26.3491 22.6566 25.5521 21.9299C25.0442 21.461 24.3018 21.2735 23.6377 21.4454Z" fill="#ADB1C7"/>
<path d="M30.428 20.414C31.3266 19.8514 32.5222 19.6951 33.4911 20.1796C33.7958 20.3124 34.0459 20.539 34.2881 20.7656C34.2959 20.5546 34.2881 20.3358 34.2959 20.117C34.8195 20.1249 35.343 20.117 35.8744 20.1249V27.0168C35.8665 28.0561 35.6009 29.1578 34.8507 29.9158C34.0303 30.7519 32.7722 31.0098 31.6392 30.8378C30.428 30.6581 29.3731 29.7751 28.9043 28.6577C29.3731 28.4311 29.8654 28.2514 30.3499 28.0404C30.6234 28.6812 31.1781 29.2282 31.8736 29.3532C32.569 29.4782 33.3739 29.3063 33.8271 28.7281C34.3116 28.1342 34.3116 27.3215 34.2881 26.5948C33.9287 26.9465 33.5145 27.259 33.0144 27.3762C31.9283 27.681 30.7327 27.3059 29.8967 26.5714C29.0527 25.8369 28.5526 24.7039 28.5995 23.5786C28.623 22.305 29.3419 21.0782 30.428 20.414ZM32.0455 21.4142C31.5688 21.4923 31.1234 21.758 30.8187 22.1252C30.0842 23.0004 30.0842 24.3991 30.8265 25.2587C31.2485 25.7666 31.9283 26.0479 32.5847 25.9775C33.202 25.915 33.7724 25.5243 34.0771 24.9852C34.5929 24.0709 34.5069 22.8285 33.8115 22.0315C33.3817 21.5392 32.6941 21.297 32.0455 21.4142Z" fill="#ADB1C7"/>
<path d="M40.7497 20.8125C41.6874 19.9373 43.133 19.6404 44.3363 20.1014C45.4772 20.5312 46.2039 21.6173 46.5711 22.7347C44.8755 23.438 43.1877 24.1334 41.492 24.8367C41.7265 25.2821 42.0859 25.6884 42.5704 25.8525C43.2502 26.0947 44.0628 26.0088 44.6333 25.5556C44.8599 25.3837 45.0396 25.1571 45.2115 24.9383C45.6413 25.2274 46.071 25.5087 46.5008 25.7978C45.8913 26.712 44.8677 27.3528 43.7659 27.4544C42.5469 27.6028 41.2498 27.134 40.4606 26.1807C39.1635 24.6804 39.2885 22.1643 40.7497 20.8125ZM41.5858 22.2581C41.3201 22.641 41.2107 23.1098 41.2185 23.5708C42.3516 23.102 43.4846 22.6331 44.6176 22.1565C44.4301 21.7189 43.9769 21.4532 43.5159 21.3829C42.7735 21.2501 41.9999 21.6486 41.5858 22.2581Z" fill="#ADB1C7"/>
</g>
<path fill-rule="evenodd" clip-rule="evenodd" d="M76.2332 20.1216V21.3779C75.6357 21.1689 74.9814 21.0469 74.4598 21.0469C73.8159 21.0469 73.4576 21.2431 73.4576 21.5956C73.4576 21.8206 73.6144 21.9696 74.0643 22.1719L75.2743 22.7148C76.2422 23.1496 76.73 23.7841 76.73 24.6085C76.73 25.8808 75.6287 26.6834 73.8831 26.6834C73.2465 26.6834 72.51 26.5923 71.7299 26.416V25.1173C72.5033 25.3277 73.2117 25.4401 73.7628 25.4401C74.4845 25.4401 74.871 25.2391 74.871 24.8643C74.871 24.6392 74.72 24.4737 74.3743 24.3193L73.05 23.7295C72.0684 23.2917 71.6154 22.702 71.6154 21.8612C71.6154 20.6563 72.6767 19.8879 74.3419 19.8879C74.9249 19.8879 75.6425 19.9766 76.2332 20.1216ZM77.6722 20.0196H79.629V26.5517H77.6722V20.0196ZM85.9913 20.0196V21.2163H83.0371V22.6896H85.6178V23.772H83.0371V25.2995H86.0295V26.5517H81.1357V20.0196H85.9913ZM95.2357 20.0196V26.5517H93.3425V22.2523L91.4879 26.6027H90.2909L88.4489 22.2523V26.5517H87.1416V20.0196H89.5311L91.2204 23.9929L92.901 20.0196H95.2357ZM101.603 20.0196V21.2163H98.6445V22.6896H101.224V23.772H98.6445V25.2995H101.636V26.5517H96.7383V20.0196H101.603ZM108.495 20.0196V26.5517H106.407L104.056 22.3622V26.5517H102.748V20.0196H104.892L107.192 24.1538V20.0196H108.495ZM114.174 20.1216V21.3779C113.581 21.1704 112.923 21.0469 112.411 21.0469C111.757 21.0469 111.399 21.24 111.399 21.5937C111.399 21.8242 111.545 21.9619 112.01 22.1721L113.215 22.715C114.19 23.1545 114.671 23.7834 114.671 24.6174C114.671 25.883 113.569 26.6839 111.827 26.6839C111.19 26.6839 110.45 26.5923 109.671 26.4164V25.1178C110.444 25.3277 111.151 25.4406 111.698 25.4406C112.415 25.4406 112.812 25.2396 112.812 24.8767C112.812 24.6365 112.673 24.4816 112.311 24.3198L110.992 23.73C110.004 23.2888 109.556 22.7058 109.556 21.8619C109.556 20.6577 110.618 19.8889 112.279 19.8889C112.864 19.8882 113.585 19.9766 114.174 20.1216Z" fill="#ADB1C7"/>
<g clip-path="url(#clip1_6_5922)">
<path d="M186.286 22.8124V21.9933H185.268V20.72L185.234 20.7306L184.279 21.0229L184.26 21.0286V21.9934H182.752V21.4559C182.752 21.2057 182.808 21.0141 182.919 20.8864C183.028 20.7602 183.185 20.6961 183.385 20.6961C183.528 20.6961 183.677 20.7299 183.826 20.7966L183.864 20.8134V19.9508L183.846 19.9444C183.707 19.8942 183.517 19.8689 183.281 19.8689C182.985 19.8689 182.715 19.9335 182.48 20.0614C182.245 20.1895 182.06 20.3724 181.93 20.605C181.801 20.8373 181.736 21.1055 181.736 21.4024V21.9933H181.027V22.8124H181.736V26.2628H182.752V22.8124H184.26V25.005C184.26 25.9081 184.686 26.3657 185.526 26.3657C185.664 26.3657 185.809 26.3495 185.958 26.3179C186.109 26.2853 186.212 26.2529 186.272 26.2182L186.286 26.2102V25.3836L186.244 25.411C186.189 25.4478 186.12 25.4778 186.04 25.5002C185.959 25.5229 185.891 25.5343 185.839 25.5343C185.642 25.5343 185.497 25.4813 185.406 25.3766C185.315 25.271 185.269 25.0864 185.269 24.828V22.8124H186.286ZM178.757 25.5344C178.388 25.5344 178.097 25.4121 177.892 25.1711C177.686 24.9288 177.581 24.5835 177.581 24.1447C177.581 23.6919 177.686 23.3376 177.892 23.0911C178.097 22.8462 178.385 22.7219 178.749 22.7219C179.101 22.7219 179.382 22.8406 179.583 23.0749C179.785 23.3104 179.887 23.6619 179.887 24.1199C179.887 24.5835 179.791 24.9397 179.601 25.1779C179.412 25.4143 179.128 25.5344 178.757 25.5344ZM178.802 21.8905C178.098 21.8905 177.539 22.0968 177.14 22.5036C176.742 22.9105 176.54 23.4736 176.54 24.1774C176.54 24.8459 176.737 25.3836 177.126 25.7753C177.515 26.1671 178.044 26.3656 178.699 26.3656C179.382 26.3656 179.93 26.1565 180.328 25.744C180.727 25.3319 180.929 24.7742 180.929 24.0868C180.929 23.4079 180.739 22.8662 180.365 22.4771C179.991 22.0878 179.465 21.8905 178.802 21.8905ZM174.901 21.8905C174.422 21.8905 174.026 22.013 173.723 22.2545C173.419 22.4974 173.264 22.8161 173.264 23.2017C173.264 23.4021 173.298 23.5802 173.363 23.7312C173.429 23.8827 173.531 24.0161 173.667 24.128C173.802 24.2391 174.009 24.3554 174.285 24.4738C174.516 24.569 174.689 24.6496 174.799 24.7132C174.906 24.7754 174.982 24.838 175.025 24.8989C175.067 24.9586 175.088 25.0402 175.088 25.141C175.088 25.4278 174.873 25.5674 174.431 25.5674C174.267 25.5674 174.08 25.5331 173.875 25.4656C173.672 25.3992 173.48 25.3018 173.306 25.177L173.264 25.1468V26.1256L173.28 26.1328C173.423 26.1992 173.605 26.2552 173.819 26.2993C174.032 26.3434 174.226 26.3658 174.394 26.3658C174.914 26.3658 175.332 26.2427 175.638 25.9998C175.945 25.7551 176.101 25.429 176.101 25.03C176.101 24.7423 176.017 24.4955 175.852 24.2964C175.688 24.099 175.403 23.9178 175.005 23.7576C174.689 23.6305 174.486 23.5251 174.402 23.4441C174.322 23.3659 174.281 23.2553 174.281 23.1152C174.281 22.9911 174.331 22.8916 174.435 22.8111C174.54 22.7301 174.685 22.6889 174.868 22.6889C175.037 22.6889 175.21 22.7157 175.383 22.7681C175.555 22.8206 175.706 22.8908 175.833 22.9767L175.874 23.0051V22.0766L175.858 22.0697C175.742 22.0198 175.588 21.977 175.401 21.9423C175.216 21.9079 175.047 21.8905 174.901 21.8905ZM170.614 25.5344C170.245 25.5344 169.954 25.4121 169.749 25.1711C169.542 24.9288 169.438 24.5835 169.438 24.1447C169.438 23.6919 169.543 23.3376 169.749 23.0911C169.954 22.8462 170.242 22.7219 170.606 22.7219C170.958 22.7219 171.239 22.8406 171.44 23.0749C171.642 23.3104 171.744 23.6619 171.744 24.1199C171.744 24.5835 171.648 24.9397 171.458 25.1779C171.269 25.4143 170.985 25.5344 170.614 25.5344ZM170.659 21.8905C169.955 21.8905 169.396 22.0968 168.997 22.5036C168.599 22.9105 168.397 23.4736 168.397 24.1774C168.397 24.8461 168.594 25.3836 168.983 25.7753C169.372 26.1671 169.901 26.3656 170.556 26.3656C171.238 26.3656 171.787 26.1565 172.185 25.744C172.584 25.3319 172.786 24.7742 172.786 24.0868C172.786 23.4079 172.596 22.8662 172.222 22.4771C171.848 22.0878 171.322 21.8905 170.659 21.8905ZM166.853 22.7327V21.9933H165.849V26.2627H166.853V24.0787C166.853 23.7074 166.938 23.4023 167.104 23.1719C167.268 22.9442 167.486 22.8288 167.753 22.8288C167.844 22.8288 167.945 22.8437 168.055 22.8732C168.164 22.9025 168.243 22.9344 168.289 22.9679L168.332 22.9985V21.986L168.315 21.979C168.222 21.9393 168.089 21.9193 167.922 21.9193C167.67 21.9193 167.444 22.0004 167.25 22.16C167.081 22.3004 166.958 22.4928 166.864 22.7327H166.853ZM164.051 21.8905C163.59 21.8905 163.179 21.9893 162.829 22.184C162.479 22.3792 162.208 22.6579 162.024 23.0123C161.84 23.3658 161.747 23.7787 161.747 24.2393C161.747 24.6426 161.838 25.0128 162.016 25.3391C162.195 25.6659 162.448 25.9216 162.768 26.0989C163.087 26.276 163.457 26.3658 163.866 26.3658C164.343 26.3658 164.75 26.2703 165.077 26.0822L165.09 26.0746V25.1545L165.048 25.1853C164.9 25.2931 164.735 25.3792 164.557 25.4412C164.379 25.5031 164.217 25.5344 164.075 25.5344C163.681 25.5344 163.365 25.4111 163.135 25.168C162.905 24.9246 162.789 24.5828 162.789 24.1527C162.789 23.7199 162.91 23.3693 163.15 23.1106C163.389 22.8527 163.706 22.7219 164.092 22.7219C164.422 22.7219 164.744 22.8337 165.048 23.0544L165.09 23.085V22.1156L165.077 22.1079C164.962 22.0438 164.806 21.9908 164.612 21.9507C164.419 21.9107 164.23 21.8905 164.051 21.8905ZM161.056 21.9934H160.051V26.2627H161.056V21.9934ZM160.564 20.1746C160.398 20.1746 160.254 20.2309 160.136 20.3424C160.017 20.4542 159.957 20.595 159.957 20.7611C159.957 20.9247 160.016 21.0629 160.134 21.1717C160.251 21.2803 160.396 21.3353 160.564 21.3353C160.732 21.3353 160.877 21.2803 160.995 21.1719C161.115 21.0629 161.175 20.9247 161.175 20.7611C161.175 20.6008 161.116 20.4615 161 20.3469C160.884 20.2325 160.738 20.1746 160.564 20.1746ZM158.058 21.6784V26.2627H159.083V20.3053H157.664L155.861 24.7303L154.112 20.3053H152.635V26.2626H153.598V21.6779H153.631L155.479 26.2627H156.206L158.025 21.6784H158.058Z" fill="#ADB1C7"/>
<path d="M144.439 23.039H139.714V18.3146H144.439V23.039Z" fill="#ADB1C7"/>
<path d="M149.655 23.039H144.931V18.3146H149.655V23.039Z" fill="#ADB1C7"/>
<path d="M144.439 28.2571H139.714V23.5327H144.439V28.2571Z" fill="#ADB1C7"/>
<path d="M149.655 28.2571H144.931V23.5327H149.655V28.2571Z" fill="#ADB1C7"/>
</g>
<g clip-path="url(#clip2_6_5922)">
<path d="M226.119 21.7831C226.119 20.3977 227.129 19.4304 228.965 19.4304C230.085 19.4304 231.001 19.788 231.498 20.1383C231.569 20.1883 231.695 20.3097 231.619 20.5354C231.522 20.7784 231.343 21.144 231.215 21.3814C231.141 21.5198 230.95 21.5016 230.853 21.4521C230.499 21.2729 229.919 20.9697 229.386 20.9138C229.251 20.8991 229.115 20.8932 228.979 20.8962C228.51 20.9067 228.118 21.0696 227.98 21.4277C227.953 21.4955 227.938 21.5674 227.935 21.6403C227.922 22.1121 228.579 22.2827 229.375 22.4194C230.854 22.6728 231.972 23.1064 231.972 24.6286C231.972 25.9212 230.945 27.0895 228.932 27.0536C227.605 27.0268 226.664 26.5784 226.159 26.1433C226.142 26.1286 225.95 25.933 226.053 25.6978C226.171 25.395 226.37 25.0479 226.526 24.8637C226.612 24.7453 226.841 24.7265 226.96 24.8003C227.376 25.0587 228.061 25.473 228.849 25.5005C228.912 25.5027 228.973 25.503 229.034 25.5015C229.744 25.4843 230.173 25.2152 230.164 24.762C230.156 24.3627 229.594 24.1294 228.698 23.9606C227.269 23.6914 226.119 23.2204 226.119 21.7831M239.1 23.7556C238.093 23.7687 237.169 24.0442 237.142 24.8316C237.142 25.4565 237.649 25.7634 238.36 25.7232C239.043 25.6575 239.563 25.3615 239.792 24.9688C239.877 24.8232 239.89 24.2785 239.885 24.0458C239.884 23.9962 239.786 23.9024 239.743 23.8844C239.529 23.7942 239.37 23.7663 239.1 23.7554M235.747 20.5826C236.219 20.1609 237.153 19.5046 238.642 19.5392C240.607 19.5801 241.645 20.5012 241.741 22.7048C241.781 23.6135 241.715 26.1481 241.699 26.7796C241.697 26.8702 241.666 26.9329 241.544 26.9352C241.221 26.9482 240.473 26.943 240.13 26.9386C239.956 26.9301 239.936 26.8441 239.934 26.7541C239.933 26.6952 239.928 26.5206 239.924 26.3782C239.922 26.3027 239.851 26.3048 239.833 26.3242C239.372 26.8163 238.617 27.0539 237.814 27.0539C236.594 27.0539 235.378 26.3362 235.382 24.9149C235.386 23.4593 236.418 22.7413 237.552 22.572C238.278 22.4639 239.096 22.56 239.716 22.8063C239.755 22.8222 239.836 22.7992 239.837 22.743C239.839 22.5575 239.83 22.204 239.795 22.0365C239.704 21.6096 239.348 21.2662 238.6 21.1736C238.446 21.1546 238.291 21.1484 238.135 21.1607C237.541 21.2074 236.825 21.6711 236.529 21.8448C236.459 21.8855 236.35 21.8557 236.314 21.8102C236.141 21.5867 235.707 20.9332 235.672 20.8288C235.638 20.7247 235.686 20.637 235.747 20.5822L235.747 20.5826ZM242.389 23.2922C242.377 21.2621 243.792 19.5495 246.089 19.5345C247.522 19.5251 248.563 20.1749 248.747 20.4813C248.784 20.5533 248.765 20.6134 248.739 20.6859C248.618 20.942 248.311 21.437 248.093 21.7174C248 21.8369 247.899 21.7345 247.782 21.6565C247.456 21.4396 246.837 21.1743 246.228 21.1743C245.124 21.1745 244.301 21.932 244.31 23.3255C244.319 24.6628 245.107 25.3977 246.232 25.4243C246.821 25.4391 247.391 25.101 247.697 24.8239C247.793 24.7399 247.893 24.782 248.003 24.868C248.219 25.0887 248.529 25.4295 248.701 25.664C248.813 25.7944 248.729 25.9219 248.688 25.9731C248.222 26.5627 247.323 27.059 246.132 27.0657C243.638 27.0832 242.401 25.3298 242.389 23.2925M254.293 26.9742C254.41 26.9654 255.659 26.793 256.042 26.7052C256.137 26.6835 256.171 26.6035 256.118 26.5242C255.904 26.2032 255.341 25.2915 254.752 24.4753C254.209 23.7249 253.638 23.0649 253.453 22.811C253.408 22.7493 253.41 22.6885 253.46 22.6406C253.811 22.2966 255.282 20.8545 255.835 20.259C256.049 20.0273 255.92 19.9277 255.739 19.8736C255.387 19.7688 254.819 19.6383 254.496 19.5702C254.36 19.5414 254.196 19.5515 254.077 19.674C253.524 20.1895 251.836 21.8831 251.333 22.3893C251.242 22.4807 251.189 22.4604 251.189 22.3299C251.185 21.3538 251.165 17.1751 251.131 16.4878C251.128 16.3969 251.019 16.3279 250.957 16.3246C250.64 16.3081 249.84 16.3033 249.525 16.3218C249.437 16.3318 249.352 16.4219 249.345 16.498C249.272 17.597 249.375 25.6649 249.419 26.7935C249.422 26.8751 249.482 26.9384 249.56 26.943C249.875 26.9612 250.653 26.96 251.016 26.9531C251.195 26.9531 251.217 26.8275 251.217 26.8275L251.243 24.6626C251.243 24.6626 251.262 24.5663 251.292 24.5345C251.42 24.3966 251.774 24.0169 251.925 23.8701C251.961 23.8348 252.019 23.8374 252.056 23.8872C252.235 24.1293 252.747 24.9165 253.221 25.6195C253.657 26.2654 254.064 26.8385 254.093 26.879C254.158 26.9725 254.235 26.9762 254.293 26.9745V26.9742H254.293ZM233.049 26.9667C233.159 26.9703 233.992 26.9694 234.362 26.9689C234.486 26.9714 234.551 26.8772 234.555 26.7941C234.633 25.2117 234.6 17.6779 234.55 16.4882C234.546 16.3854 234.502 16.3468 234.432 16.3374C234.115 16.295 233.214 16.3049 232.925 16.3804C232.869 16.3951 232.836 16.438 232.834 16.4932C232.763 19.5596 232.811 26.6292 232.826 26.7631C232.841 26.8971 232.911 26.962 233.049 26.9667H233.049Z" fill="#ADB1C7"/>
<path d="M210.743 23.8204C210.23 23.8244 209.795 23.5183 209.634 23.0406C209.628 23.0225 209.623 23.0043 209.617 22.9861C209.443 22.3743 209.782 21.7342 210.389 21.5293L220.134 18.2644C220.25 18.2309 220.37 18.2135 220.49 18.2124C221.018 18.2083 221.465 18.5211 221.629 19.009L221.644 19.0561C221.826 19.6933 221.373 20.2621 220.83 20.4444C220.83 20.4447 220.731 20.478 211.139 23.753C211.012 23.7965 210.878 23.8193 210.743 23.8204Z" fill="#ADB1C7"/>
<path d="M212.368 28.6131C211.85 28.6168 211.414 28.3151 211.255 27.8442C211.249 27.8262 211.243 27.8082 211.238 27.79C211.061 27.1709 211.4 26.5242 212.009 26.319L221.755 23.0242C221.881 22.9821 222.011 22.9606 222.142 22.9594C222.661 22.9555 223.117 23.2726 223.278 23.7488L223.293 23.7984C223.387 24.1275 223.331 24.4975 223.144 24.7894C223.004 25.0065 222.564 25.1976 222.564 25.1976L212.782 28.5425C212.648 28.5877 212.509 28.6116 212.368 28.6133V28.6131Z" fill="#ADB1C7"/>
<path d="M220.48 28.6339C220.228 28.6363 219.981 28.5587 219.775 28.4122C219.569 28.2657 219.415 28.0579 219.335 27.8184L216.082 18.1573L216.066 18.1031C215.89 17.487 216.229 16.8444 216.836 16.6396C216.958 16.5988 217.083 16.5774 217.21 16.5763C217.398 16.5749 217.579 16.6173 217.751 16.7019C217.892 16.7717 218.018 16.8686 218.121 16.9872C218.225 17.1058 218.304 17.2437 218.354 17.3929L221.606 27.0532L221.615 27.0842C221.798 27.7239 221.46 28.3669 220.852 28.5716C220.732 28.6117 220.607 28.6327 220.48 28.6339Z" fill="#ADB1C7"/>
<path d="M215.646 30.2612C215.393 30.2636 215.146 30.1859 214.94 30.0393C214.734 29.8927 214.58 29.6846 214.499 29.445L211.248 19.7843C211.197 19.6353 211.177 19.4777 211.188 19.3208C211.198 19.1638 211.24 19.0105 211.309 18.8695C211.379 18.7286 211.476 18.6028 211.595 18.4994C211.714 18.396 211.851 18.317 212 18.267C212.121 18.2268 212.246 18.2057 212.373 18.2045C212.626 18.202 212.873 18.2796 213.078 18.4261C213.284 18.5726 213.439 18.7805 213.519 19.02L216.771 28.6811C216.821 28.8302 216.842 28.9878 216.831 29.1449C216.82 29.3019 216.779 29.4553 216.709 29.5963C216.639 29.7373 216.542 29.8631 216.423 29.9664C216.304 30.0698 216.166 30.1487 216.017 30.1987C215.897 30.2389 215.772 30.2599 215.645 30.2611L215.646 30.2612Z" fill="#ADB1C7"/>
<path d="M218.877 26.4582L221.145 25.6829L220.403 23.4812L218.133 24.2485L218.877 26.4582Z" fill="#ADB1C7"/>
<path d="M214.049 28.1086L216.317 27.3333L215.57 25.1149L213.3 25.8824L214.049 28.1086Z" fill="#ADB1C7"/>
<path d="M217.262 21.6627L219.53 20.8883L218.798 18.7124L216.525 19.4737L217.262 21.6627Z" fill="#ADB1C7"/>
<path d="M212.435 23.3108L214.703 22.5365L213.961 20.3328L211.689 21.0939L212.435 23.3108Z" fill="#ADB1C7"/>
</g>
<g clip-path="url(#clip3_6_5922)">
<path d="M319.216 22.659V26.3185H320.386V23.8788H324.663V26.3185H325.833V22.659H319.216ZM320.252 21.4725H324.764C325.399 21.3556 325.85 20.7874 325.984 20.2527H319.032C319.166 20.7874 319.634 21.3389 320.252 21.4725ZM315.657 26.3185C316.241 26.0678 316.559 25.6334 316.693 25.1321H311.429V20.2694H310.243V26.3185H315.657ZM301.47 21.4558H305.647C306.282 21.272 306.8 20.7874 306.934 20.2694H300.317V23.8454H305.731V25.0987H301.486C300.818 25.2825 300.25 25.7336 299.966 26.3185H306.9V22.659H301.486L301.47 21.4558ZM291.176 21.4725H295.688C296.323 21.3556 296.791 20.7874 296.908 20.2527H289.94C290.073 20.7874 290.541 21.3389 291.176 21.4725ZM291.176 23.8621H295.688C296.323 23.7451 296.791 23.177 296.908 22.6422H289.94C290.073 23.177 290.541 23.7284 291.176 23.8621ZM291.176 26.3185H295.688C296.323 26.2015 296.791 25.6334 296.908 25.0987H289.94C290.073 25.6334 290.541 26.2015 291.176 26.3185Z" fill="#ADB1C7"/>
<path d="M279.429 20.2694C279.562 20.8041 280.03 21.3389 280.648 21.4725H282.553L282.654 21.506V26.3018H283.84V21.506L283.94 21.4725H285.845C286.48 21.3054 286.931 20.8041 287.065 20.2694V20.2527L279.429 20.2694Z" fill="#ADB1C7"/>
</g>
<g clip-path="url(#clip4_6_5922)">
<path d="M75.8373 50.7506C76.0967 50.7506 76.3102 50.6158 76.339 50.4415L76.5951 47.5454C76.5951 47.2592 76.2597 47.0242 75.8381 47.0242C75.4169 47.0242 75.0819 47.2592 75.0819 47.5455L75.3378 50.4415C75.3659 50.6157 75.5794 50.7506 75.8382 50.7506H75.8373ZM74.272 51.6552C74.4021 51.4309 74.3923 51.1787 74.2552 51.0667L71.8747 49.3969C71.6272 49.2535 71.2561 49.4261 71.0455 49.7913C70.8342 50.1561 70.8717 50.5635 71.1185 50.7069L73.7543 51.9342C73.9191 51.9953 74.1438 51.8777 74.2729 51.6535L74.272 51.6552ZM77.4039 51.6537C77.5338 51.8779 77.7573 51.9955 77.9223 51.9343L80.5581 50.7071C80.8065 50.5637 80.8418 50.1563 80.6324 49.7915C80.4208 49.4266 80.049 49.2537 79.8022 49.397L77.4216 51.0669C77.2855 51.1787 77.2754 51.4311 77.4048 51.6554L77.4039 51.6537ZM75.8373 54.3683C76.0967 54.3683 76.3102 54.5021 76.339 54.6764L76.5951 57.5721C76.5951 57.8593 76.2597 58.0938 75.8381 58.0938C75.4169 58.0938 75.0819 57.8593 75.0819 57.5721L75.3378 54.6764C75.3659 54.5021 75.5794 54.3683 75.8382 54.3683H75.8373ZM77.4039 53.4635C77.5338 53.2387 77.7573 53.1221 77.9223 53.1839L80.5581 54.4104C80.8065 54.5539 80.8418 54.9617 80.6324 55.3268C80.4208 55.6905 80.049 55.8639 79.8022 55.7207L77.4216 54.0525C77.2855 53.9397 77.2754 53.6872 77.4048 53.4631H77.4037M74.272 53.4632C74.4021 53.6872 74.3923 53.9397 74.2552 54.0527L71.8747 55.7209C71.6272 55.864 71.2561 55.6907 71.0455 55.327C70.8342 54.9619 70.8717 54.554 71.1185 54.4105L73.7543 53.1841C73.9191 53.1223 74.1438 53.2389 74.2729 53.4637H74.272" fill="#ADB1C7"/>
<path d="M60.8217 54.0472C60.8217 54.1361 60.8138 54.2278 60.7895 54.3083C60.6885 54.6426 60.3423 54.9254 59.9092 54.9254C59.5481 54.9254 59.2613 54.7202 59.2613 54.287C59.2613 53.6239 59.9911 53.4408 60.8219 53.4454L60.8217 54.0472V54.0472ZM62.1248 52.8917C62.1248 51.7983 61.6576 50.8362 60.079 50.8362C59.2687 50.8362 58.6255 51.0638 58.2745 51.2666L58.5316 52.1456C58.8524 51.9431 59.3637 51.7754 59.8476 51.7754C60.6484 51.7732 60.7795 52.2289 60.7795 52.5205V52.5895C59.034 52.587 57.9307 53.1913 57.9307 54.4225C57.9307 55.1749 58.4926 55.8795 59.4695 55.8795C60.0698 55.8795 60.5725 55.6399 60.8734 55.2557H60.9031C60.9031 55.2557 61.1022 56.0898 62.2013 55.7707C62.1439 55.4238 62.125 55.0535 62.125 54.6083L62.1249 52.8917M34.9286 49.3471C34.9286 49.3471 36.0692 54.0209 36.2513 54.7794C36.4638 55.6648 36.8467 55.9907 37.9503 55.7707L38.6624 52.8731C38.843 52.153 38.9639 51.6396 39.0802 50.9079H39.1005C39.1822 51.6474 39.2981 52.1553 39.4467 52.8755C39.4467 52.8755 39.7365 54.191 39.8851 54.8817C40.0339 55.5723 40.4481 56.0077 41.5292 55.7707L43.2262 49.3469H41.8564L41.2768 52.1244C41.121 52.9325 40.9797 53.5647 40.8707 54.3038H40.8513C40.7522 53.5712 40.6261 52.9648 40.4679 52.1772L39.8649 49.3469H38.4374L37.7921 52.1059C37.6094 52.9445 37.4381 53.6213 37.3296 54.3359H37.3099C37.1985 53.663 37.0502 52.812 36.8897 52.0006C36.8897 52.0006 36.5065 50.0272 36.3718 49.3469L34.9286 49.3471ZM45.8173 54.0472C45.8173 54.1361 45.8094 54.2278 45.7847 54.3083C45.6839 54.6426 45.3375 54.9254 44.9044 54.9254C44.5432 54.9254 44.2568 54.7202 44.2568 54.287C44.2568 53.6239 44.9865 53.4408 45.8174 53.4454L45.8173 54.0472V54.0472ZM47.1202 52.8917C47.1202 51.7983 46.653 50.8362 45.0747 50.8362C44.2642 50.8362 43.6205 51.0638 43.2697 51.2666L43.5265 52.1456C43.8472 51.9431 44.3586 51.7754 44.8426 51.7754C45.6439 51.7732 45.7751 52.2289 45.7751 52.5205V52.5895C44.0289 52.587 42.926 53.1913 42.926 54.4225C42.926 55.1749 43.4877 55.8795 44.4638 55.8795C45.0649 55.8795 45.5673 55.6399 45.8686 55.2557H45.8979C45.8979 55.2557 46.0976 56.0898 47.1964 55.7707C47.139 55.4238 47.1202 55.0535 47.1202 54.6083V52.8917ZM49.2948 54.4071V49.3471H47.9902V55.7709H49.2948V54.4071ZM66.3624 49.3471V54.0858C66.3624 54.7394 66.4856 55.1969 66.7483 55.4768C66.9786 55.7216 67.3569 55.88 67.8105 55.88C68.1964 55.88 68.5758 55.8064 68.7548 55.74L68.738 54.7207C68.6048 54.7533 68.4518 54.7796 68.2424 54.7796C67.7979 54.7796 67.6492 54.4948 67.6492 53.9083V52.0952H68.7853V50.866H67.6492V49.3471H66.3624ZM62.9948 50.9451V55.7709H64.3407V53.3C64.3407 53.1664 64.3487 53.0501 64.3699 52.9436C64.4694 52.4258 64.8652 52.0952 65.4338 52.0952C65.5896 52.0952 65.7011 52.1122 65.822 52.1293V50.866C65.7206 50.8458 65.6517 50.8363 65.5256 50.8363C65.0233 50.8363 64.4519 51.1604 64.2121 51.8556H64.1757V50.9451H62.9948ZM50.2084 50.9451V55.7709H51.5196V52.9411C51.5196 52.8083 51.5352 52.6678 51.5812 52.5461C51.6899 52.2612 51.955 51.9275 52.3782 51.9275C52.9075 51.9275 53.1547 52.3748 53.1547 53.0204V55.7705H54.4649V52.9062C54.4649 52.7795 54.4822 52.6268 54.5197 52.5151C54.6273 52.1908 54.9129 51.9271 55.3063 51.9271C55.8427 51.9271 56.1002 52.3666 56.1002 53.1265V55.7704H57.4113V52.928C57.4113 51.4292 56.6502 50.8359 55.7909 50.8359C55.4107 50.8359 55.1103 50.9311 54.8386 51.0976C54.6105 51.2381 54.4059 51.4372 54.2273 51.699H54.208C54.0008 51.1789 53.5133 50.8361 52.878 50.8361C52.0618 50.8361 51.695 51.2498 51.4725 51.6007H51.453V50.945H50.2084" fill="#ADB1C7"/>
<path d="M81.2189 55.5363H81.2387C81.265 55.5363 81.2818 55.5255 81.2818 55.5094C81.2818 55.491 81.266 55.481 81.2416 55.481C81.2332 55.481 81.2247 55.4827 81.219 55.4827V55.5368V55.5363L81.2189 55.5363ZM81.2159 55.6664H81.1462V55.4393C81.162 55.4362 81.1989 55.4307 81.2461 55.4307C81.2974 55.4307 81.3204 55.438 81.3372 55.4493C81.3515 55.4592 81.3618 55.4762 81.3618 55.4991C81.3618 55.5224 81.3403 55.5421 81.3087 55.5507V55.5536C81.3345 55.5605 81.3486 55.5792 81.356 55.612C81.363 55.6448 81.3673 55.6582 81.3717 55.6666H81.2928C81.2859 55.6582 81.2818 55.6381 81.2772 55.618C81.2727 55.595 81.2619 55.5835 81.2386 55.5835H81.2157L81.2159 55.6664ZM81.2447 55.3654C81.1446 55.3654 81.0691 55.4469 81.0691 55.5509C81.0691 55.6521 81.1448 55.7347 81.2474 55.7347C81.3505 55.7365 81.4262 55.6522 81.4262 55.5492C81.4262 55.4467 81.3505 55.3654 81.2463 55.3654H81.2447ZM81.2492 55.3037C81.3887 55.3037 81.5 55.4136 81.5 55.5491C81.5 55.6863 81.3887 55.7963 81.2473 55.7963C81.1059 55.7963 80.9932 55.6862 80.9932 55.5492C80.9932 55.4136 81.106 55.3038 81.2473 55.3038H81.2488" fill="#ADB1C7"/>
</g>
<path fill-rule="evenodd" clip-rule="evenodd" d="M123.739 54.8206L123.159 57.5164H121.825L124.029 47.7463H125.608L127.681 57.5164H126.333L125.768 54.8206H123.739ZM125.608 53.7333L125.159 51.3992C125.029 50.7323 124.898 49.863 124.797 49.1669H124.739C124.637 49.8773 124.492 50.7758 124.362 51.3992L123.898 53.7333H125.608ZM132.772 47.4856V55.7046C132.772 56.2412 132.801 57.024 132.83 57.5167H131.656L131.569 56.6616H131.525C131.294 57.1543 130.757 57.6329 130.047 57.6329C128.742 57.6329 127.945 56.212 127.945 54.0235C127.945 51.5301 129.003 50.3559 130.12 50.3559C130.685 50.3559 131.134 50.6171 131.38 51.1532H131.409V47.4856H132.772ZM131.409 53.1535C131.409 53.0233 131.409 52.8638 131.395 52.7183C131.322 52.0807 130.96 51.5299 130.467 51.5299C129.612 51.5299 129.322 52.7183 129.322 54.0233C129.322 55.4729 129.699 56.4874 130.424 56.4874C130.728 56.4874 131.134 56.328 131.366 55.4874C131.395 55.3714 131.409 55.1972 131.409 55.0383V53.1535ZM136.018 57.6327C134.612 57.6327 133.597 56.4294 133.597 54.009C133.597 51.4429 134.8 50.3557 136.09 50.3557C137.482 50.3557 138.482 51.6024 138.482 53.9798C138.482 56.7776 137.105 57.6327 136.032 57.6327H136.018ZM136.061 56.5602C136.902 56.5602 137.09 55.067 137.09 53.9945C137.09 52.936 136.902 51.4286 136.032 51.4286C135.133 51.4286 134.96 52.936 134.96 53.9945C134.96 55.1685 135.163 56.5602 136.047 56.5602H136.061ZM139.303 47.4856H140.666V51.2689H140.695C141.057 50.6313 141.55 50.3557 142.173 50.3557C143.376 50.3557 144.13 51.7183 144.13 53.8783C144.13 56.4005 143.101 57.6327 141.941 57.6327C141.246 57.6327 140.854 57.2555 140.55 56.6322H140.492L140.419 57.5164H139.245C139.274 57.0383 139.303 56.241 139.303 55.7044V47.4856ZM140.666 55.023C140.666 55.183 140.68 55.3425 140.724 55.4582C140.941 56.3137 141.362 56.4874 141.637 56.4874C142.449 56.4874 142.753 55.4149 142.753 53.9653C142.753 52.6171 142.434 51.5299 141.622 51.5299C141.173 51.5299 140.81 52.0662 140.709 52.5736C140.68 52.7186 140.665 52.9073 140.665 53.052V55.023H140.666ZM146.141 54.2695C146.156 56.0815 146.938 56.5307 147.764 56.5307C148.257 56.5307 148.678 56.415 148.982 56.2697L149.185 57.2555C148.765 57.473 148.127 57.5892 147.503 57.5892C145.735 57.5892 144.807 56.2555 144.807 54.081C144.807 51.7761 145.865 50.3554 147.33 50.3554C148.794 50.3554 149.475 51.7616 149.475 53.5304C149.475 53.8781 149.46 54.0958 149.446 54.284L146.141 54.2695ZM148.185 53.2984C148.199 52.0517 147.764 51.3852 147.228 51.3852C146.518 51.3852 146.199 52.4144 146.156 53.2984H148.185Z" fill="#ADB1C7"/>
<path fill-rule="evenodd" clip-rule="evenodd" d="M114.146 47.7723H118.216V57.5164L114.146 47.7723ZM111.279 47.7723H107.205V57.5164L111.279 47.7723ZM112.712 51.3634L115.306 57.5164H113.606L112.831 55.5567H110.933L112.712 51.3634Z" fill="#ADB1C7"/>
<path fill-rule="evenodd" clip-rule="evenodd" d="M149.359 50.3375C149.4 50.3377 149.44 50.346 149.478 50.3618C149.516 50.3777 149.55 50.4009 149.578 50.43C149.607 50.4592 149.63 50.4937 149.645 50.5316C149.66 50.5695 149.668 50.61 149.667 50.6509C149.667 50.8277 149.53 50.9657 149.358 50.9657C149.186 50.9657 149.047 50.828 149.047 50.6509C149.047 50.6099 149.055 50.5692 149.07 50.5313C149.086 50.4933 149.108 50.4588 149.137 50.4297C149.166 50.4006 149.201 50.3775 149.238 50.3617C149.276 50.3458 149.317 50.3376 149.358 50.3375H149.359ZM149.358 50.3861C149.22 50.3861 149.107 50.5047 149.107 50.6509C149.107 50.7999 149.22 50.9169 149.359 50.9169C149.498 50.9183 149.61 50.7999 149.61 50.6523C149.61 50.5047 149.498 50.3861 149.359 50.3861H149.358ZM149.299 50.8335H149.244V50.4837C149.273 50.4796 149.301 50.4752 149.343 50.4752C149.396 50.4752 149.43 50.4866 149.451 50.5018C149.472 50.517 149.483 50.5407 149.483 50.5743C149.483 50.6202 149.453 50.6482 149.415 50.6593V50.662C149.446 50.6675 149.467 50.6956 149.473 50.747C149.482 50.8014 149.49 50.8222 149.496 50.8335H149.437C149.429 50.8222 149.421 50.7903 149.414 50.7444C149.405 50.6997 149.383 50.683 149.338 50.683H149.299V50.8335H149.299ZM149.299 50.6397H149.34C149.385 50.6397 149.425 50.6231 149.425 50.5798C149.425 50.5491 149.402 50.5185 149.34 50.5185C149.322 50.5185 149.309 50.5199 149.299 50.5214V50.6397ZM118.753 47.7723C118.794 47.7725 118.834 47.7808 118.872 47.7967C118.909 47.8126 118.943 47.8357 118.972 47.8649C119.001 47.894 119.023 47.9285 119.038 47.9664C119.054 48.0043 119.061 48.0449 119.061 48.0857C119.061 48.2626 118.924 48.4005 118.751 48.4005C118.58 48.4005 118.441 48.2628 118.441 48.0857C118.44 48.0447 118.448 48.0041 118.464 47.9661C118.479 47.9282 118.502 47.8937 118.531 47.8646C118.56 47.8355 118.594 47.8123 118.632 47.7965C118.67 47.7807 118.71 47.7725 118.751 47.7723H118.753ZM118.751 47.8209C118.613 47.8209 118.5 47.9395 118.5 48.0857C118.5 48.2348 118.613 48.3517 118.753 48.3517C118.892 48.3532 119.004 48.2348 119.004 48.0872C119.004 47.9395 118.892 47.8209 118.753 47.8209H118.751ZM118.693 48.2684H118.637V47.9185C118.67 47.9131 118.703 47.9103 118.736 47.9103C118.789 47.9103 118.824 47.9212 118.845 47.9366C118.866 47.9519 118.877 47.9758 118.877 48.0091C118.877 48.055 118.846 48.083 118.808 48.0942V48.0968C118.839 48.1024 118.86 48.1304 118.867 48.1821C118.875 48.2365 118.884 48.2572 118.889 48.2686H118.831C118.822 48.2572 118.814 48.2254 118.807 48.1794C118.799 48.1348 118.776 48.1181 118.732 48.1181H118.693V48.2684ZM118.693 48.0746H118.733C118.779 48.0746 118.818 48.0579 118.818 48.0147C118.818 47.984 118.796 47.9533 118.733 47.9533C118.715 47.9533 118.702 47.9548 118.693 47.9562V48.0746Z" fill="#ADB1C7"/>
<mask id="mask0_6_5922" style="mask-type:luminance" maskUnits="userSpaceOnUse" x="176" y="46" width="43" height="13">
<path d="M218.886 46.7377H176.971V58.3805H218.886V46.7377Z" fill="white"/>
</mask>
<g mask="url(#mask0_6_5922)">
<path d="M176.971 50.4534H180.703L184.527 54.255H180.703V58.0571L176.971 54.255V50.4534ZM176.971 46.7377H184.527V50.4534H180.703L176.971 46.7377Z" fill="#ADB1C7"/>
<path d="M191.644 54.7729V49.1589H195.121V50.2806H192.949V51.753H195.121V52.8746H192.949V54.7729H191.644Z" fill="#ADB1C7"/>
<path d="M195.901 54.7729V50.8849H197.201V51.753C197.201 51.4943 197.374 51.2299 197.547 51.0571C197.807 50.8849 197.986 50.7985 198.246 50.7985C198.419 50.7985 198.506 50.8849 198.593 50.8849V52.0122H198.246C197.9 52.0122 197.634 52.0986 197.461 52.3572C197.288 52.5296 197.201 52.8746 197.201 53.3061V54.7729H195.901H195.901Z" fill="#ADB1C7"/>
<path d="M201.025 53.9099C201.372 53.9099 201.545 53.824 201.718 53.5648C201.891 53.3925 201.978 53.1333 201.978 52.8746C201.978 52.5295 201.891 52.3567 201.718 52.098C201.545 51.9252 201.372 51.8394 201.025 51.8394C200.765 51.8394 200.5 51.9257 200.326 52.098C200.153 52.3567 200.066 52.5295 200.066 52.8746C200.066 53.1333 200.153 53.3925 200.326 53.5648C200.499 53.8235 200.765 53.9099 201.025 53.9099ZM200.678 54.9456C200.066 54.9456 199.633 54.687 199.286 54.3414C199.027 53.9963 198.853 53.4784 198.853 52.8746C198.853 52.4431 198.94 52.098 199.027 51.8394C199.2 51.4943 199.459 51.2299 199.72 51.0577C199.98 50.8848 200.327 50.799 200.678 50.799C200.938 50.799 201.199 50.8853 201.458 50.9712C201.631 51.0577 201.805 51.2299 201.892 51.4943V50.8848H203.192V54.7729H201.892V54.2549C201.805 54.4273 201.632 54.6 201.458 54.7729C201.199 54.8592 200.938 54.9456 200.678 54.9456Z" fill="#ADB1C7"/>
<path d="M204.15 54.7729V50.8849H205.363V51.4943C205.45 51.2299 205.623 51.1436 205.797 50.9712C206.062 50.8849 206.236 50.7985 206.496 50.7985C207.103 50.7985 207.536 51.0571 207.709 51.4943C207.882 51.3163 208.056 51.1436 208.229 50.9712C208.489 50.8849 208.755 50.7985 209.015 50.7985C209.968 50.7985 210.401 51.3163 210.401 52.3572V54.7734H209.188V52.6165C209.188 52.3578 209.101 52.185 209.015 52.0122C208.928 51.9258 208.755 51.8394 208.576 51.8394C208.316 51.8394 208.143 51.9258 208.056 52.098C207.969 52.1845 207.883 52.4431 207.883 52.7882V54.7729H206.669V52.6159C206.669 52.3572 206.583 52.1845 206.496 52.0116C206.409 51.9253 206.236 51.8389 206.063 51.8389C205.889 51.8389 205.711 51.9253 205.538 52.0975C205.451 52.1839 205.364 52.4426 205.364 52.7877V54.7724H204.151L204.15 54.7729Z" fill="#ADB1C7"/>
<path d="M212.313 52.4433H213.959C213.959 52.1846 213.873 52.0118 213.786 51.8395C213.612 51.6667 213.439 51.6667 213.179 51.6667C212.919 51.6667 212.659 51.7531 212.486 51.8395C212.399 52.0118 212.313 52.1846 212.313 52.4433ZM215.178 52.6161V53.2198H212.313C212.313 53.4786 212.4 53.6513 212.573 53.8242C212.66 53.91 212.919 53.9964 213.179 53.9964C213.612 53.9964 213.786 53.91 213.959 53.6513H215.178C215.091 53.9964 214.918 54.3415 214.485 54.6002C214.138 54.7725 213.7 54.9453 213.18 54.9453C212.487 54.9453 211.966 54.7725 211.62 54.341C211.268 53.9959 211.008 53.478 211.008 52.8742C211.008 52.1841 211.268 51.7526 211.62 51.316C211.966 50.9709 212.487 50.7981 213.18 50.7981C213.787 50.7981 214.225 50.9704 214.658 51.316C215.005 51.6667 215.179 52.0982 215.179 52.6156" fill="#ADB1C7"/>
<path d="M215.87 54.7729V50.8849H217.089V51.753C217.176 51.4943 217.349 51.2299 217.522 51.0571C217.696 50.8849 217.956 50.7985 218.215 50.7985C218.302 50.7985 218.475 50.8849 218.563 50.8849V52.0122H218.129C217.869 52.0122 217.609 52.0986 217.436 52.3572C217.176 52.5296 217.089 52.8746 217.089 53.3061V54.7729H215.87Z" fill="#ADB1C7"/>
</g>
<g clip-path="url(#clip5_6_5922)">
<mask id="mask1_6_5922" style="mask-type:luminance" maskUnits="userSpaceOnUse" x="244" y="29" width="48" height="47">
<path d="M291.071 29.2734H244.5V75.8449H291.071V29.2734Z" fill="white"/>
</mask>
<g mask="url(#mask1_6_5922)">
<mask id="mask2_6_5922" style="mask-type:luminance" maskUnits="userSpaceOnUse" x="244" y="29" width="48" height="47">
<path d="M291.071 29.2734H244.5V75.8449H291.071V29.2734Z" fill="white"/>
</mask>
<g mask="url(#mask2_6_5922)">
<path d="M260.986 49.816H260.938C259.291 49.816 258.267 50.8406 258.267 52.4939V53.3857C258.267 55.039 259.289 56.0636 260.938 56.0636H260.986C262.633 56.0636 263.657 55.039 263.657 53.3857V52.4939C263.657 50.8406 262.633 49.816 260.986 49.816ZM262.505 53.4486C262.505 54.5337 261.941 55.1601 260.961 55.1718C259.981 55.1601 259.417 54.5337 259.417 53.4486V52.4334C259.417 51.3482 259.981 50.7219 260.961 50.7102C261.941 50.7219 262.505 51.3482 262.505 52.4334V53.4486ZM276.8 51.4088H276.751C276.127 51.4088 275.682 51.6207 275.466 52.0259L275.398 52.1493V51.5159H274.334V55.9425H275.452V53.3066C275.452 52.6872 275.787 52.3309 276.364 52.3193C276.919 52.3309 277.235 52.6779 277.235 53.281V55.9402H278.353V53.09C278.353 52.0375 277.775 51.4088 276.807 51.4088H276.802H276.8ZM288.929 50.7847V49.9395H285.243V50.7847H286.536V55.0903H285.243V55.9355H288.929V55.0903H287.637V50.7847H288.929ZM282.323 49.9395H281.168L279.019 55.9448H280.227L280.64 54.6595H282.987V54.6734L283.399 55.9495H284.608L282.454 49.9441H282.328L282.323 49.9395ZM280.903 53.8095L281.809 50.9733L282.707 53.8095H280.903ZM267.001 51.4088H266.952C266.391 51.4088 265.909 51.6416 265.655 52.0282L265.592 52.126V51.5136H264.528V57.4654H265.646V55.386L265.709 55.4815C265.949 55.8377 266.417 56.0496 266.964 56.0496H267.017C267.937 56.0496 268.864 55.4512 268.864 54.1076V53.3531C268.864 52.3868 268.294 51.4111 267.011 51.4111L267.004 51.4065L267.001 51.4088ZM267.742 54.0517C267.742 54.7573 267.337 55.1927 266.68 55.2067C266.07 55.195 265.644 54.7317 265.644 54.068V53.402C265.644 52.7337 266.074 52.261 266.689 52.2471C267.337 52.2587 267.739 52.6988 267.739 53.402V54.0494L267.742 54.0517ZM271.635 51.4088C271.614 51.4088 271.593 51.4134 271.572 51.4134C271.551 51.4134 271.53 51.4088 271.509 51.4088C270.252 51.4088 269.472 52.1935 269.472 53.4556V54.075C269.472 55.2905 270.261 56.045 271.526 56.045C271.554 56.045 271.579 56.045 271.602 56.0426C271.621 56.0426 271.635 56.045 271.651 56.045C272.501 56.045 273.093 55.7353 273.47 55.0926L272.72 54.6595C272.471 55.0297 272.136 55.3068 271.656 55.3068C271.016 55.3068 270.631 54.9133 270.631 54.245V54.068H273.605V53.3345C273.605 52.1586 272.834 51.3995 271.635 51.3995V51.4041V51.4088ZM270.627 53.3601V53.2553C270.627 52.5498 270.962 52.1563 271.572 52.1283C272.157 52.1563 272.511 52.5451 272.511 53.1808V53.3578H270.629V53.3625L270.627 53.3601Z" fill="#ADB1C7"/>
<path d="M256.232 51.6137C256.467 50.9058 256.388 50.1304 256.01 49.4854C255.442 48.4981 254.301 47.9904 253.188 48.228C252.692 47.6714 251.98 47.3547 251.232 47.3571C250.094 47.3571 249.083 48.0906 248.731 49.171C247.998 49.3224 247.367 49.7811 246.997 50.4285C246.426 51.4158 246.556 52.6546 247.32 53.5022C247.085 54.2101 247.164 54.9855 247.541 55.6258C248.11 56.6155 249.251 57.1231 250.368 56.8879C250.862 57.4444 251.574 57.7658 252.32 57.7611C253.458 57.7611 254.469 57.0276 254.821 55.9472C255.554 55.7958 256.185 55.3371 256.551 54.6897C257.126 53.7024 256.995 52.4636 256.229 51.616V51.6114L256.232 51.6137ZM255.421 49.8277C255.647 50.2212 255.731 50.6846 255.654 51.1317C255.64 51.12 255.612 51.1061 255.594 51.0968L253.521 49.8975C253.416 49.837 253.286 49.837 253.179 49.8975L250.75 51.2993V50.2701L252.755 49.1105C253.689 48.5703 254.879 48.8916 255.419 49.8254M250.75 51.9653L251.772 51.3739L252.795 51.9653V53.1459L251.772 53.7374L250.75 53.1459V51.9653ZM251.225 48.037C251.684 48.037 252.124 48.1954 252.476 48.4888C252.462 48.4957 252.434 48.5144 252.413 48.5237L250.34 49.7182C250.236 49.7788 250.17 49.8906 250.17 50.014V52.8199L249.279 52.3053V49.986C249.279 48.9079 250.149 48.037 251.228 48.0347L251.223 48.0393L251.225 48.037ZM247.586 50.7708C247.814 50.3749 248.17 50.0722 248.601 49.9138V52.3775C248.601 52.5009 248.664 52.6103 248.771 52.6732L251.195 54.0727L250.301 54.5896L248.301 53.4346C247.369 52.8944 247.05 51.7045 247.588 50.7708M248.135 55.2905C247.907 54.8993 247.825 54.4336 247.902 53.9865C247.916 53.9982 247.944 54.0121 247.963 54.0214L250.035 55.2183C250.14 55.2789 250.27 55.2789 250.378 55.2183L252.802 53.8165V54.8458L250.797 56.0007C249.863 56.5363 248.673 56.2196 248.133 55.2882H248.135V55.2905ZM252.324 57.0812C251.87 57.0812 251.425 56.9228 251.076 56.6294C251.09 56.6225 251.123 56.6038 251.139 56.5945L253.211 55.4C253.316 55.3394 253.384 55.2276 253.381 55.1042V52.303L254.273 52.8176V55.1322C254.273 56.2103 253.4 57.0835 252.324 57.0835V57.0789V57.0812ZM255.969 54.3474C255.74 54.741 255.379 55.046 254.953 55.1997V52.7361C254.953 52.6127 254.89 52.5009 254.783 52.4403L252.355 51.0385L253.246 50.5239L255.251 51.6789C256.185 52.2191 256.502 53.409 255.964 54.3428L255.969 54.3474Z" fill="#ADB1C7"/>
</g>
</g>
</g>
<defs>
<clipPath id="clip0_6_5922">
<rect width="46.5714" height="46.5714" fill="white"/>
</clipPath>
<clipPath id="clip1_6_5922">
<rect width="46.5714" height="46.5714" fill="white" transform="translate(139.714)"/>
</clipPath>
<clipPath id="clip2_6_5922">
<rect width="46.5714" height="46.5714" fill="white" transform="translate(209.571)"/>
</clipPath>
<clipPath id="clip3_6_5922">
<rect width="46.5714" height="46.5714" fill="white" transform="translate(279.429)"/>
</clipPath>
<clipPath id="clip4_6_5922">
<rect width="46.5714" height="46.5714" fill="white" transform="translate(34.9286 29.2734)"/>
</clipPath>
<clipPath id="clip5_6_5922">
<rect width="46.5714" height="46.5714" fill="white" transform="translate(244.5 29.2734)"/>
</clipPath>
</defs>
</svg>
