<svg width="16" height="16" viewBox="0 0 16 16" fill="none" xmlns="http://www.w3.org/2000/svg">
<path d="M7.99999 15.744C7.74079 15.7462 7.48604 15.6765 7.26399 15.5428L4.48914 13.92C3.45033 13.339 2.58329 12.4941 1.97566 11.4707C1.36802 10.4472 1.04132 9.28154 1.02856 8.09139V3.6571C1.02869 3.35829 1.12032 3.06668 1.29113 2.8215C1.46194 2.57632 1.70373 2.38933 1.98399 2.28567L7.49714 0.260531C7.82184 0.141672 8.17815 0.141672 8.50285 0.260531L14.016 2.28567C14.2963 2.38933 14.5381 2.57632 14.7089 2.8215C14.8797 3.06668 14.9713 3.35829 14.9714 3.6571V8.09139C14.9587 9.28154 14.632 10.4472 14.0243 11.4707C13.4167 12.4941 12.5497 13.339 11.5108 13.92L8.73599 15.5428C8.51394 15.6765 8.25919 15.7462 7.99999 15.744ZM7.99999 1.31653C7.96372 1.30993 7.92655 1.30993 7.89028 1.31653L2.37714 3.35082C2.31504 3.37381 2.26175 3.41577 2.22483 3.47075C2.1879 3.52572 2.16922 3.59092 2.17142 3.6571V8.09139C2.18468 9.08169 2.45926 10.0509 2.9674 10.901C3.47553 11.7511 4.19918 12.4519 5.06514 12.9325L7.83999 14.56C7.88906 14.5868 7.94408 14.6008 7.99999 14.6008C8.05591 14.6008 8.11092 14.5868 8.15999 14.56L10.9349 12.9325C11.8008 12.4519 12.5245 11.7511 13.0326 10.901C13.5407 10.0509 13.8153 9.08169 13.8286 8.09139V3.6571C13.8289 3.59246 13.8093 3.5293 13.7725 3.47615C13.7357 3.423 13.6835 3.38244 13.6228 3.35996L8.10971 1.33482C8.07456 1.32208 8.03737 1.31588 7.99999 1.31653Z" fill="#171717"/>
<path d="M7.49717 10.2172C7.36227 10.2164 7.23169 10.1696 7.12688 10.0847L5.17488 8.43895C5.05849 8.34136 4.98564 8.20152 4.97235 8.0502C4.95906 7.89889 5.00643 7.74849 5.10403 7.6321C5.20163 7.51571 5.34147 7.44285 5.49278 7.42956C5.6441 7.41628 5.79449 7.46364 5.91089 7.56124L7.44231 8.85038L10.0572 5.97038C10.159 5.85763 10.3015 5.78995 10.4532 5.78223C10.605 5.77452 10.7536 5.8274 10.8663 5.92924C10.9791 6.03108 11.0467 6.17355 11.0545 6.32529C11.0622 6.47704 11.0093 6.62563 10.9075 6.73838L7.94517 10.0298C7.88846 10.0915 7.81904 10.1403 7.74171 10.1726C7.66437 10.205 7.58095 10.2202 7.49717 10.2172Z" fill="#171717"/>
</svg>
